<svg width="535" height="535" viewBox="0 0 535 535" fill="none" xmlns="http://www.w3.org/2000/svg">
<circle cx="267.5" cy="267.5" r="267.5" fill="#242424" fill-opacity="0.5"/>
<circle cx="267.5" cy="267.5" r="174.396" fill="#333333" fill-opacity="0.5"/>
<circle cx="268.194" cy="268.195" r="113.948" fill="#424242" fill-opacity="0.5"/>
<path d="M236.5 305V298.75C236.5 290.462 239.792 282.513 245.653 276.653C251.513 270.792 259.462 267.5 267.75 267.5M267.75 267.5C276.038 267.5 283.987 270.792 289.847 276.653C295.708 282.513 299 290.462 299 298.75V305M267.75 267.5C272.723 267.5 277.492 265.525 281.008 262.008C284.525 258.492 286.5 253.723 286.5 248.75C286.5 243.777 284.525 239.008 281.008 235.492C277.492 231.975 272.723 230 267.75 230C262.777 230 258.008 231.975 254.492 235.492C250.975 239.008 249 243.777 249 248.75C249 253.723 250.975 258.492 254.492 262.008C258.008 265.525 262.777 267.5 267.75 267.5ZM199 305V298.75C199 293.777 200.975 289.008 204.492 285.492C208.008 281.975 212.777 280 217.75 280M217.75 280C221.065 280 224.245 278.683 226.589 276.339C228.933 273.995 230.25 270.815 230.25 267.5C230.25 264.185 228.933 261.005 226.589 258.661C224.245 256.317 221.065 255 217.75 255C214.435 255 211.255 256.317 208.911 258.661C206.567 261.005 205.25 264.185 205.25 267.5C205.25 270.815 206.567 273.995 208.911 276.339C211.255 278.683 214.435 280 217.75 280ZM336.5 305V298.75C336.5 293.777 334.525 289.008 331.008 285.492C327.492 281.975 322.723 280 317.75 280M317.75 280C321.065 280 324.245 278.683 326.589 276.339C328.933 273.995 330.25 270.815 330.25 267.5C330.25 264.185 328.933 261.005 326.589 258.661C324.245 256.317 321.065 255 317.75 255C314.435 255 311.255 256.317 308.911 258.661C306.567 261.005 305.25 264.185 305.25 267.5C305.25 270.815 306.567 273.995 308.911 276.339C311.255 278.683 314.435 280 317.75 280Z" stroke="#4BB726" stroke-width="8.5" stroke-linecap="round" stroke-linejoin="round"/>
</svg>
