<svg width="110" height="53" viewBox="0 0 110 53" fill="none" xmlns="http://www.w3.org/2000/svg">
<path d="M8.92 45.28H14.08V41.48C18.56 40.8 21.68 37.88 21.68 33.4C21.68 24.24 8.04 27.04 8.04 22.16C8.04 20.68 9.04 19.6 10.96 19.6C12.96 19.6 14.32 20.64 14.68 22.88H20.92C20.4 18.36 17.64 15.84 14.08 15V11H8.92V14.8C4.28 15.56 1.76 18.8 1.76 22.36C1.76 31.88 15.44 28.72 15.44 34C15.44 35.52 14.28 36.68 12.08 36.68C9.56 36.68 7.76 35.4 7.48 33.12H1.32C1.92 37.8 4.76 40.48 8.92 41.36V45.28ZM38.3269 31.84C38.3269 34.6 36.8069 36.68 34.4469 36.68C32.2869 36.68 31.2469 35.32 31.2469 32.56V19.48H25.1269V33.8C25.1269 39.16 28.1269 41.64 32.2069 41.64C34.8069 41.64 36.9269 40.52 38.3269 38.12V41H44.4469V19.48H38.3269V31.84ZM54.7234 49.84V38.84C56.0034 40.68 57.8434 41.64 60.1234 41.64C65.6034 41.64 69.1634 37.52 69.1634 30.2C69.1634 23.16 65.6834 18.8 60.1234 18.8C57.8834 18.8 56.0434 19.84 54.7234 21.72V19.48H48.6034V49.84H54.7234ZM58.8434 23.76C61.4434 23.76 62.8834 26.04 62.8834 30.2C62.8834 34.4 61.4834 36.68 58.8434 36.68C56.1634 36.68 54.7234 34.36 54.7234 30.2C54.7234 26.04 56.1234 23.76 58.8434 23.76ZM72.3925 41H78.5125V29.88C78.5125 26.48 80.1525 24.4 83.8325 24.4C84.7925 24.4 85.5525 24.48 86.2725 24.64V19.48C85.8325 19.04 85.0325 18.8 84.1525 18.8C81.9525 18.8 79.8725 19.92 78.5125 22.48V19.48H72.3925V41Z" fill="#E6E6E6"/>
<path d="M86.8406 23.88H89.2006V41H95.3206V23.88H99.0806V19.48H95.3206V19.24C95.3206 17.12 95.9606 16 98.6406 16H99.0806V12.12C98.4806 11.84 97.3606 11.56 95.8006 11.56C91.6006 11.56 89.2006 14.16 89.2006 19.2V19.48H86.8406V23.88ZM101.121 17.32H107.241V12.2H101.121V17.32ZM101.121 41H107.241V19.48H101.121V41Z" fill="#4BB726"/>
</svg>
